<?xml version="1.0" encoding="UTF-8"?>
<svg id="Capa_1" xmlns="http://www.w3.org/2000/svg" version="1.1" viewBox="0 0 71.93 76.03">
  <!-- Generator: Adobe Illustrator 30.0.0, SVG Export Plug-In . SVG Version: 2.1.1 Build 123)  -->
  <defs>
    <style>
      .st0 {
        fill: #1e1e1d;
      }
    </style>
  </defs>
  <rect class="st0" x="40.92" y="6.83" width="2.83" height="8.5"/>
  <rect class="st0" x="58.64" y="20.97" width="2.83" height="8.5" transform="translate(85.27 -34.84) rotate(90)"/>
  <rect class="st0" x="59.67" y="7.54" width="2.27" height="7.09" transform="translate(25.65 -39.75) rotate(45)"/>
  <rect class="st0" x="50.67" y="16.54" width="2.27" height="7.09" transform="translate(29.38 -30.75) rotate(45)"/>
  <rect class="st0" x="41.67" y="25.54" width="2.27" height="7.09" transform="translate(33.1 -21.75) rotate(45)"/>
  <rect class="st0" x="58.64" y="33.76" width="2.83" height="8.5" transform="translate(98.07 -22.04) rotate(90)"/>
  <rect class="st0" x="58.64" y="27.36" width="2.83" height="8.5" transform="translate(91.67 -28.44) rotate(90)"/>
  <rect class="st0" x="28.17" y="6.83" width="2.83" height="8.5" transform="translate(59.17 22.17) rotate(180)"/>
  <rect class="st0" x="10.45" y="20.97" width="2.83" height="8.5" transform="translate(37.09 13.35) rotate(90)"/>
  <rect class="st0" x="9.99" y="7.54" width="2.27" height="7.09" transform="translate(26.83 11.06) rotate(135)"/>
  <rect class="st0" x="18.99" y="16.54" width="2.27" height="7.09" transform="translate(48.56 20.06) rotate(135)"/>
  <rect class="st0" x="27.99" y="25.54" width="2.27" height="7.09" transform="translate(70.27 29.06) rotate(135)"/>
  <rect class="st0" x="10.45" y="33.76" width="2.83" height="8.5" transform="translate(49.88 26.15) rotate(90)"/>
  <rect class="st0" x="10.45" y="27.36" width="2.83" height="8.5" transform="translate(43.49 19.75) rotate(90)"/>
  <rect class="st0" x="40.92" y="60.69" width="2.83" height="8.5"/>
  <rect class="st0" x="58.64" y="46.56" width="2.83" height="8.5" transform="translate(9.24 110.87) rotate(-90)"/>
  <rect class="st0" x="59.67" y="61.4" width="2.27" height="7.09" transform="translate(-28.11 62.02) rotate(-45)"/>
  <rect class="st0" x="50.67" y="52.4" width="2.27" height="7.09" transform="translate(-24.39 53.02) rotate(-45)"/>
  <rect class="st0" x="41.67" y="43.41" width="2.27" height="7.09" transform="translate(-20.66 44.02) rotate(-45)"/>
  <rect class="st0" x="58.64" y="40.16" width="2.83" height="8.5" transform="translate(15.64 104.47) rotate(-90)"/>
  <rect class="st0" x="28.17" y="60.69" width="2.83" height="8.5" transform="translate(59.17 129.89) rotate(180)"/>
  <rect class="st0" x="10.45" y="46.56" width="2.83" height="8.5" transform="translate(-38.95 62.68) rotate(-90)"/>
  <rect class="st0" x="9.99" y="61.4" width="2.27" height="7.09" transform="translate(-26.93 118.73) rotate(-135)"/>
  <rect class="st0" x="18.99" y="52.4" width="2.27" height="7.09" transform="translate(-5.2 109.73) rotate(-135)"/>
  <rect class="st0" x="27.99" y="43.41" width="2.27" height="7.09" transform="translate(16.51 100.74) rotate(-135)"/>
  <rect class="st0" x="10.45" y="40.16" width="2.83" height="8.5" transform="translate(-32.55 56.28) rotate(-90)"/>
</svg>